name D:\school\WTK\thesis\model\3dpredictsim\Results\debug\Pog_s1_tmt_bCst_d05_k1000_WL30_ig24_act_TTC_IATx30Tn0P50.mot
datacolumns 128
datarows 4
range 0.54281716 0.57538619
endheader
time	pelvis_tilt	pelvis_list	pelvis_rotation	pelvis_tx	pelvis_ty	pelvis_tz	hip_flexion_l	hip_adduction_l	hip_rotation_l	hip_flexion_r	hip_adduction_r	hip_rotation_r	knee_angle_l	knee_angle_r	ankle_angle_l	ankle_angle_r	subtalar_angle_l	subtalar_angle_r	tmt_angle_l	tmt_angle_r	mtp_angle_l	mtp_angle_r	lumbar_extension	lumbar_bending	lumbar_rotation	arm_flex_l	arm_add_l	arm_rot_l	arm_flex_r	arm_add_r	arm_rot_r	elbow_flex_l	elbow_flex_r	pro_sup_l	pro_sup_r	glut_med1_l/activation	glut_med2_l/activation	glut_med3_l/activation	glut_min1_l/activation	glut_min2_l/activation	glut_min3_l/activation	semimem_l/activation	semiten_l/activation	bifemlh_l/activation	bifemsh_l/activation	sar_l/activation	add_long_l/activation	add_brev_l/activation	add_mag1_l/activation	add_mag2_l/activation	add_mag3_l/activation	tfl_l/activation	pect_l/activation	grac_l/activation	glut_max1_l/activation	glut_max2_l/activation	glut_max3_l/activation	iliacus_l/activation	psoas_l/activation	quad_fem_l/activation	gem_l/activation	peri_l/activation	rect_fem_l/activation	vas_med_l/activation	vas_int_l/activation	vas_lat_l/activation	med_gas_l/activation	lat_gas_l/activation	soleus_l/activation	tib_post_l/activation	flex_dig_l/activation	flex_hal_l/activation	tib_ant_l/activation	per_brev_l/activation	per_long_l/activation	per_tert_l/activation	ext_dig_l/activation	ext_hal_l/activation	ercspn_l/activation	intobl_l/activation	extobl_l/activation	glut_med1_r/activation	glut_med2_r/activation	glut_med3_r/activation	glut_min1_r/activation	glut_min2_r/activation	glut_min3_r/activation	semimem_r/activation	semiten_r/activation	bifemlh_r/activation	bifemsh_r/activation	sar_r/activation	add_long_r/activation	add_brev_r/activation	add_mag1_r/activation	add_mag2_r/activation	add_mag3_r/activation	tfl_r/activation	pect_r/activation	grac_r/activation	glut_max1_r/activation	glut_max2_r/activation	glut_max3_r/activation	iliacus_r/activation	psoas_r/activation	quad_fem_r/activation	gem_r/activation	peri_r/activation	rect_fem_r/activation	vas_med_r/activation	vas_int_r/activation	vas_lat_r/activation	med_gas_r/activation	lat_gas_r/activation	soleus_r/activation	tib_post_r/activation	flex_dig_r/activation	flex_hal_r/activation	tib_ant_r/activation	per_brev_r/activation	per_long_r/activation	per_tert_r/activation	ext_dig_r/activation	ext_hal_r/activation	ercspn_r/activation	intobl_r/activation	extobl_r/activation	
          0.54281716	         -2.90307502	          1.39078169	         -5.88551919	          0.67852145	          0.85992262	          0.00130486	         30.46771545	          2.79210501	         -1.93676178	        -18.08969451	         -1.53315508	          7.50790331	        -18.00055113	        -11.08049492	          1.48357248	         -3.26474904	         -1.34439929	         14.18756574	         -0.27048477	         -9.66780737	          0.86218481	         30.66370175	         -0.52357942	          0.14792718	          1.96998722	        -11.80261870	        -13.61163714	          6.22682912	          4.94828180	        -13.49348648	         15.46474428	         18.44887868	         36.29612607	         86.51662706	         86.51662706	          0.07036900	          0.05000286	          0.05000017	          0.05904694	          0.05904684	          0.05000110	          0.05000003	          0.05000009	          0.13918569	          0.05000005	          0.05000094	          0.08234922	          0.19628701	          0.15507303	          0.20764980	          0.17081596	          0.05000015	          0.05962543	          0.05000028	          0.07229684	          0.21057001	          0.20242491	          0.05106883	          0.05000031	          0.15986534	          0.16040597	          0.13921632	          0.06973086	          0.24779446	          0.23864433	          0.20297110	          0.06209678	          0.05904709	          0.05811748	          0.05000008	          0.05000046	          0.05000088	          0.34280969	          0.19349315	          0.12099048	          0.31595689	          0.32801264	          0.26014065	          0.05000007	          0.08459833	          0.09738769	          0.20323410	          0.08083579	          0.05000009	          0.22322648	          0.15503839	          0.08116675	          0.05000057	          0.05000011	          0.05000008	          0.05515991	          0.07062174	          0.18285652	          0.20203317	          0.06315223	          0.05000101	          0.05000020	          0.21682282	          0.12733922	          0.05023224	          0.05000065	          0.05000046	          0.05000035	          0.26234520	          0.49683330	          0.05000032	          0.05000073	          0.05000079	          0.24873021	          0.05000034	          0.09104791	          0.13696480	          0.22993563	          0.30245470	          0.17166688	          0.17747199	          0.18876091	          0.23663514	          0.05000005	          0.12128573	          0.18782471	          0.05000011	          0.05000006	          0.05000020	          0.05003751	          0.06678394	          0.05000005	
          0.55367351	         -2.88466787	          1.46514321	         -6.10061461	          0.69546836	          0.85840925	          0.00115047	         29.73721583	          3.14308045	         -1.62125542	        -17.81089723	         -1.77970368	          7.27233436	        -18.18406823	        -13.20811823	          1.29770673	         -4.38988175	         -1.86872898	         14.99109105	         -0.33224831	         -9.90113247	          0.98765767	         30.81240347	         -0.27781146	         -0.08342901	          2.02774398	        -12.85512349	        -13.61414540	          6.15185143	          4.63217167	        -13.53046852	         15.70305859	         18.33808320	         37.24788654	         86.51662706	         86.51662706	          0.20198619	          0.05000012	          0.19771939	          0.05000006	          0.05000007	          0.05000015	          0.05721858	          0.05000084	          0.12435981	          0.05000007	          0.05000022	          0.06973207	          0.16621281	          0.31068930	          0.27700276	          0.18450083	          0.05000022	          0.05051352	          0.10999894	          0.16946105	          0.21222811	          0.17948176	          0.05000005	          0.05000011	          0.31152013	          0.13582923	          0.11788619	          0.05904699	          0.24134966	          0.24599101	          0.20806024	          0.05258260	          0.05000024	          0.05000001	          0.05000005	          0.05000643	          0.05000047	          0.33178848	          0.17424838	          0.10852020	          0.41924779	          0.31688814	          0.22028302	          0.05000000	          0.07163650	          0.08246631	          0.17209537	          0.06845046	          0.05436541	          0.18902464	          0.13128404	          0.06873074	          0.05000928	          0.05000067	          0.05281011	          0.05000007	          0.05980149	          0.23138600	          0.30198346	          0.19427175	          0.07906124	          0.13559496	          0.18360216	          0.10782918	          0.05037806	          0.05023647	          0.05892376	          0.05904851	          0.22214969	          0.44989102	          0.05904707	          0.05904698	          0.05000082	          0.21062073	          0.14771032	          0.09009806	          0.11597972	          0.19470576	          0.25611373	          0.14536473	          0.15028043	          0.15983977	          0.20037887	          0.09328185	          0.10270297	          0.17652133	          0.05001315	          0.09065637	          0.07253351	          0.06421465	          0.05908696	          0.05904727	
          0.56452985	         -2.86359261	          1.54768877	         -6.28601725	          0.71248097	          0.85673528	          0.00101576	         28.85189375	          3.46219560	         -1.26495790	        -17.43679007	         -2.01072031	          7.03200329	        -18.68982177	        -15.52025712	          1.40293962	         -5.47648791	         -2.44607834	         15.68956046	         -0.58992896	         -9.81865725	          1.03979603	         30.03823227	         -0.02868732	         -0.32951227	          2.07285918	        -13.84800416	        -13.62819083	          6.18598694	          4.27682815	        -13.57125946	         15.89688883	         18.15725433	         38.16377838	         86.51662706	         86.51662706	          0.33800163	          0.35943137	          0.49875734	          0.39481556	          0.28735478	          0.39392258	          0.07262738	          0.09682983	          0.10530623	          0.06972931	          0.05000053	          0.05904803	          0.14074635	          0.26308674	          0.23456160	          0.17269296	          0.05000020	          0.05904003	          0.09314597	          0.28573661	          0.25309880	          0.17132612	          0.05000026	          0.05000015	          0.26379024	          0.11501810	          0.25343520	          0.05000006	          0.28581340	          0.30187714	          0.25389252	          0.05000009	          0.05000022	          0.05868774	          0.10478261	          0.05000024	          0.05000053	          0.41466298	          0.14755071	          0.09189315	          0.35501253	          0.33327291	          0.32441453	          0.05176011	          0.07986169	          0.06983114	          0.18933957	          0.05796278	          0.05000004	          0.16012455	          0.11116929	          0.05820015	          0.05005079	          0.05000030	          0.05000023	          0.05000024	          0.05129372	          0.19593406	          0.25571477	          0.16450623	          0.06694798	          0.11481972	          0.22187458	          0.09130830	          0.05000067	          0.05000091	          0.05000065	          0.05000159	          0.18811275	          0.43232089	          0.05000016	          0.05000041	          0.05000009	          0.17835024	          0.12507874	          0.07629361	          0.09820977	          0.16487367	          0.21687296	          0.12309249	          0.12725510	          0.13534985	          0.16967770	          0.11848366	          0.13221240	          0.16051040	          0.10453391	          0.11409628	          0.08178710	          0.09327951	          0.05003388	          0.05000029	
          0.57538619	         -2.84348191	          1.63408864	         -6.43224435	          0.72924251	          0.85513493	          0.00085819	         27.94131278	          3.78522426	         -0.92271444	        -16.92337600	         -2.22392554	          6.79826446	        -19.17101023	        -18.03654927	          1.62915039	         -6.49568739	         -3.07242967	         16.27648886	         -0.82048046	         -9.32143567	          1.13803676	         28.04542402	          0.19492365	         -0.58348608	          2.10751293	        -14.70047040	        -13.64239751	          6.33373402	          3.94368812	        -13.60775868	         16.07404142	         17.85734516	         38.96720187	         86.51662706	         86.51662706	          0.45825941	          0.51718957	          0.61198568	          0.33432379	          0.48680634	          0.46307191	          0.06149983	          0.09031042	          0.08917167	          0.05904573	          0.05000014	          0.05000095	          0.11918175	          0.22277771	          0.19862521	          0.18496869	          0.05000018	          0.05000052	          0.07887462	          0.36552049	          0.28683482	          0.19894313	          0.05000002	          0.05000002	          0.22337336	          0.09739557	          0.21460495	          0.05000003	          0.38353643	          0.39179841	          0.32996654	          0.05000000	          0.05000001	          0.05000000	          0.15212450	          0.07623408	          0.05000075	          0.46905750	          0.12494356	          0.07781364	          0.30061908	          0.33108197	          0.38638956	          0.06671246	          0.06762559	          0.05913188	          0.16032972	          0.05000018	          0.05000008	          0.13559105	          0.09413646	          0.05000030	          0.05001376	          0.05000022	          0.05000037	          0.05000009	          0.05000064	          0.20034948	          0.21653522	          0.13930138	          0.05669084	          0.09722779	          0.22930881	          0.07731865	          0.05000026	          0.05000176	          0.05000131	          0.05000056	          0.15929088	          0.39635535	          0.05000007	          0.05000041	          0.05000025	          0.16728681	          0.10592458	          0.08980854	          0.08425200	          0.13961235	          0.18364451	          0.10423272	          0.11069617	          0.11461227	          0.14368067	          0.10805159	          0.11195541	          0.13591765	          0.08851774	          0.09661495	          0.06925638	          0.11981910	          0.05000000	          0.05000002	
